Motion_mu02
version=1
nRows=6
nColumns=43
inDegrees=yes
endheader
time	pelvis_tilt	pelvis_list	pelvis_rotation	pelvis_tx	pelvis_ty	pelvis_tz	hip_flexion_r	hip_adduction_r	hip_rotation_r	knee_angle_r	ankle_angle_r	subtalar_angle_r	mtp_angle_r	hip_flexion_l	hip_adduction_l	hip_rotation_l	knee_angle_l	ankle_angle_l	subtalar_angle_l	mtp_angle_l	lumbar_extension	lumbar_bending	lumbar_rotation	neck_flexion	neck_lateral_bending	neck_rotation	arm_flex_r	arm_add_r	arm_rot_r	elbow_flex_r	pro_sup_r	wrist_flex_r	wrist_dev_r	hand_finger_flex_r	arm_flex_l	arm_add_l	arm_rot_l	elbow_flex_l	pro_sup_l	wrist_flex_l	wrist_dev_l	hand_finger_flex_l
      0.81250000	      1.06641699	      3.41986015	    -90.44999692	      0.02329747	      0.85593572	      1.37627773	     16.43763212	    -10.26075782	    -11.19237950	    -87.47456195	     16.45503221	     -8.76543894	      5.42894600	      7.18129454	     -6.81315981	    -14.10067426	    -85.73903347	     28.90471206	     -1.42436016	     -4.34405646	     19.51515096	      1.16294955	      0.65601815	      9.20065347	     -3.44886018	      2.50019403	     -4.36369466	   -158.56708512	   -112.88729156	     29.90195372	    105.94768496	     29.78469914	    -14.99445868	     73.07674881	     -0.66636056	    205.83125555	    -95.77402812	     37.64659545	     85.18105555	     22.16536041	      3.75317321	     90.00021046
      0.81500000	      1.06420129	      3.40967487	    -90.45564128	      0.02333461	      0.85648892	      1.37870397	     16.38248447	    -10.25134806	    -11.19613447	    -87.47271284	     16.45003316	     -8.76547338	      5.42825636	      7.14608588	     -6.79000741	    -14.10192954	    -85.72927455	     28.89802409	     -1.42688603	     -4.34625562	     19.63510069	      1.17190901	      0.66251498	      9.19541023	     -3.45009980	      2.50043328	     -4.32162332	   -158.56485503	   -112.88706898	     29.89949109	    105.94098799	     29.78546456	    -14.99406859	     73.07646409	     -0.62128603	    205.82562072	    -95.77581873	     37.64613480	     85.17555926	     22.16548938	      3.75344244	     90.00021046
      0.81750000	      1.05347485	      3.47388180	    -90.50194334	      0.02337580	      0.85722399	      1.38143884	     16.27483498	    -10.23417290	    -11.25752557	    -87.12643650	     16.43371441	     -8.76899515	      5.42375785	      7.03750790	     -6.68591777	    -14.08151537	    -85.34828886	     28.83711170	     -1.45762111	     -4.36914944	     19.87795091	      1.20027564	      0.68134574	      9.13222018	     -3.45563026	      2.50053670	     -4.28390824	   -158.56382412	   -112.73144835	     29.83508835	    105.89328729	     29.81843599	    -14.98665798	     73.07248461	     -0.54397218	    205.79321685	    -95.64211061	     37.65176282	     85.13243530	     22.19358757	      3.76253339	     90.00021046
      0.82000000	      1.05338569	      3.45415176	    -90.49957424	      0.02343947	      0.85781755	      1.38385081	     16.22362311	    -10.23556852	    -11.25507098	    -87.14680213	     16.43233915	     -8.77268915	      5.42372189	      6.99717827	     -6.67704930	    -14.08054450	    -85.35870620	     28.83294479	     -1.46303141	     -4.37088608	     19.99300714	      1.20467287	      0.68041665	      9.12581517	     -3.45515579	      2.50055411	     -4.24733895	   -158.56676175	   -112.72465603	     29.83897421	    105.88600347	     29.82192074	    -14.98738775	     73.07247678	     -0.52095981	    205.79619669	    -95.63187178	     37.65168127	     85.12802532	     22.19692663	      3.76345708	     90.00021046
      0.82250000	      1.05030029	      3.43670855	    -90.49546569	      0.02348978	      0.85841709	      1.38628645	     16.16994882	    -10.23455575	    -11.26050060	    -87.14734298	     16.42992992	     -8.77607439	      5.42356098	      6.95282746	     -6.66341695	    -14.08027248	    -85.34352164	     28.82637621	     -1.46816112	     -4.37321613	     20.11500406	      1.21119864	      0.68139255	      9.11584063	     -3.45525392	      2.50050719	     -4.21689939	   -158.56560364	   -112.70845998	     29.83671521	    105.87916025	     29.82750322	    -14.98755302	     73.07247596	     -0.49189179	    205.79354116	    -95.61664331	     37.65370314	     85.12285994	     22.20186951	      3.76447630	     90.00021046
      0.82500000	      1.02858925	      3.48869618	    -90.47462482	      0.02355180	      0.85926190	      1.38924633	     15.99746347	    -10.23968801	    -11.42279697	    -86.75147715	     16.41344004	     -8.80449244	      5.42166852	      6.75051140	     -6.60124509	    -14.06778388	    -84.80795709	     28.76031580	     -1.52428253	     -4.40111764	     20.41618180	      1.22046991	      0.63125687	      8.96564760	     -3.45159353	      2.49755176	     -4.23732267	   -158.55013720	   -112.36895831	     29.77167023	    105.80916417	     29.91919896	    -14.98910198	     73.07119704	     -0.49551022	    205.75952714	    -95.29783002	     37.68777739	     85.06739026	     22.28554128	      3.78124189	     90.00021046
